<?xml version="1.0" encoding="utf-8"?>
<!-- Generator: Adobe Illustrator 16.2.0, SVG Export Plug-In . SVG Version: 6.00 Build 0)  -->
<!DOCTYPE svg PUBLIC "-//W3C//DTD SVG 1.1//EN" "http://www.w3.org/Graphics/SVG/1.1/DTD/svg11.dtd">
<svg version="1.1" id="Layer_1" xmlns="http://www.w3.org/2000/svg" xmlns:xlink="http://www.w3.org/1999/xlink" x="0px" y="0px"
	 width="1200px" height="780px" viewBox="0 0 1200 780" enable-background="new 0 0 1200 780" xml:space="preserve">
<polygon fill="none" stroke="#E6E6E6" points="253.5,89.249 166.335,99.048 166.335,80.249 "/>
<polygon fill="none" stroke="#E6E6E6" points="253.5,126.6 166.335,136.4 166.335,117.6 "/>
<polygon fill="none" stroke="#E6E6E6" points="253.5,164.2 166.335,174 166.335,155.2 "/>
<polygon fill="none" stroke="#E6E6E6" points="253.5,201.666 166.335,211.466 166.335,192.666 "/>
<polygon fill="none" stroke="#E6E6E6" points="253.5,239.266 166.335,249.066 166.335,230.266 "/>
<polygon fill="none" stroke="#E6E6E6" points="253.5,276.866 166.335,286.666 166.335,267.866 "/>
<polygon fill="none" stroke="#E6E6E6" points="253.5,314.8 166.335,324.6 166.335,305.8 "/>
<polygon fill="none" stroke="#E6E6E6" points="253.5,352.4 166.335,362.2 166.335,343.4 "/>
<polygon fill="none" stroke="#E6E6E6" points="340.665,332.807 253.5,352.233 253.5,314.967 "/>
<polygon fill="none" stroke="#E6E6E6" points="340.665,257.345 253.5,277.049 253.5,239.249 "/>
<polygon fill="none" stroke="#E6E6E6" points="340.665,182.116 253.5,201.725 253.5,164.108 "/>
<polygon fill="none" stroke="#E6E6E6" points="427.498,143.203 340.333,182.409 340.333,107.197 "/>
<polygon fill="none" stroke="#E6E6E6" points="427.498,293.46 340.333,333 340.333,257.148 "/>
<polygon fill="none" stroke="#E6E6E6" points="514.406,215.003 427.241,293.178 427.241,143.21 "/>
<polygon fill="none" stroke="#E6E6E6" points="340.665,107.31 253.5,126.541 253.5,89.648 "/>
<polygon fill="none" stroke="#E6E6E6" points="946.359,89.249 1033.523,99.048 1033.523,80.249 "/>
<polygon fill="none" stroke="#E6E6E6" points="946.359,126.6 1033.523,136.4 1033.523,117.6 "/>
<polygon fill="none" stroke="#E6E6E6" points="946.359,164.2 1033.523,174 1033.523,155.2 "/>
<polygon fill="none" stroke="#E6E6E6" points="946.359,201.666 1033.523,211.466 1033.523,192.666 "/>
<polygon fill="none" stroke="#E6E6E6" points="946.359,239.266 1033.523,249.066 1033.523,230.266 "/>
<polygon fill="none" stroke="#E6E6E6" points="946.359,276.866 1033.523,286.666 1033.523,267.866 "/>
<polygon fill="none" stroke="#E6E6E6" points="946.359,314.8 1033.523,324.6 1033.523,305.8 "/>
<polygon fill="none" stroke="#E6E6E6" points="946.359,352.4 1033.523,362.2 1033.523,343.4 "/>
<polygon fill="none" stroke="#E6E6E6" points="859.193,332.807 946.359,352.233 946.359,314.967 "/>
<polygon fill="none" stroke="#E6E6E6" points="859.193,257.345 946.359,277.049 946.359,239.249 "/>
<polygon fill="none" stroke="#E6E6E6" points="859.193,182.116 946.359,201.725 946.359,164.108 "/>
<polygon fill="none" stroke="#E6E6E6" points="772.361,143.203 859.525,182.409 859.525,107.197 "/>
<polygon fill="none" stroke="#E6E6E6" points="772.361,293.46 859.525,333 859.525,257.148 "/>
<polygon fill="none" stroke="#E6E6E6" points="685.453,215.003 772.617,293.178 772.617,143.21 "/>
<polygon fill="none" stroke="#E6E6E6" points="859.193,107.31 946.359,126.541 946.359,89.648 "/>
<polygon fill="none" stroke="#E6E6E6" points="253.5,428.415 166.335,438.214 166.335,419.415 "/>
<polygon fill="none" stroke="#E6E6E6" points="253.5,465.678 166.335,475.478 166.335,456.678 "/>
<polygon fill="none" stroke="#E6E6E6" points="253.5,503.277 166.335,513.078 166.335,494.277 "/>
<polygon fill="none" stroke="#E6E6E6" points="253.5,540.744 166.335,550.543 166.335,531.744 "/>
<polygon fill="none" stroke="#E6E6E6" points="253.5,578.344 166.335,588.144 166.335,569.344 "/>
<polygon fill="none" stroke="#E6E6E6" points="253.5,615.943 166.335,625.744 166.335,606.943 "/>
<polygon fill="none" stroke="#E6E6E6" points="253.5,653.878 166.335,663.678 166.335,644.878 "/>
<polygon fill="none" stroke="#E6E6E6" points="253.5,691.479 166.335,701.277 166.335,682.479 "/>
<polygon fill="none" stroke="#E6E6E6" points="340.665,671.885 253.5,691.311 253.5,654.045 "/>
<polygon fill="none" stroke="#E6E6E6" points="340.665,596.422 253.5,616.127 253.5,578.326 "/>
<polygon fill="none" stroke="#E6E6E6" points="340.665,521.193 253.5,540.803 253.5,503.186 "/>
<polygon fill="none" stroke="#E6E6E6" points="427.498,482.28 340.333,521.486 340.333,446.275 "/>
<polygon fill="none" stroke="#E6E6E6" points="427.498,632.538 340.333,672.078 340.333,596.227 "/>
<polygon fill="none" stroke="#E6E6E6" points="514.406,554.081 427.241,632.256 427.241,482.287 "/>
<polygon fill="none" stroke="#E6E6E6" points="340.665,446.387 253.5,465.619 253.5,428.727 "/>
<g opacity="0.6">
	<line fill="none" stroke="#0066AB" stroke-width="2" x1="166.335" y1="419.415" x2="253.5" y2="428.415"/>
	<line fill="none" stroke="#0066AB" stroke-width="2" x1="166.335" y1="456.678" x2="253.5" y2="465.678"/>
	<line fill="none" stroke="#0066AB" stroke-width="2" x1="166.335" y1="494.277" x2="253.5" y2="503.277"/>
	<line fill="none" stroke="#0066AB" stroke-width="2" x1="166.335" y1="531.744" x2="253.5" y2="540.744"/>
	<line fill="none" stroke="#0066AB" stroke-width="2" x1="166.335" y1="569.344" x2="253.5" y2="578.344"/>
	<line fill="none" stroke="#0066AB" stroke-width="2" x1="166.335" y1="606.943" x2="253.5" y2="615.943"/>
	<line fill="none" stroke="#0066AB" stroke-width="2" x1="166.335" y1="644.878" x2="253.5" y2="653.878"/>
	<line fill="none" stroke="#0066AB" stroke-width="2" x1="166.335" y1="682.479" x2="253.5" y2="691.479"/>
	<line fill="none" stroke="#0066AB" stroke-width="2" x1="340.665" y1="671.885" x2="253.5" y2="691.311"/>
	<line fill="none" stroke="#0066AB" stroke-width="2" x1="253.5" y1="578.326" x2="340.665" y2="596.422"/>
	<line fill="none" stroke="#0066AB" stroke-width="2" x1="253.5" y1="503.186" x2="340.665" y2="521.193"/>
	<line fill="none" stroke="#0066AB" stroke-width="2" x1="340.333" y1="446.275" x2="427.498" y2="482.28"/>
	<line fill="none" stroke="#0066AB" stroke-width="2" x1="340.333" y1="596.227" x2="427.498" y2="632.538"/>
	<line fill="none" stroke="#0066AB" stroke-width="2" x1="514.406" y1="554.081" x2="427.241" y2="632.256"/>
	<line fill="none" stroke="#0066AB" stroke-width="2" x1="340.665" y1="446.387" x2="253.5" y2="465.619"/>
</g>
<polygon fill="none" stroke="#E6E6E6" points="946.359,428.415 1033.523,438.214 1033.523,419.415 "/>
<polygon fill="none" stroke="#E6E6E6" points="946.359,465.678 1033.523,475.478 1033.523,456.678 "/>
<polygon fill="none" stroke="#E6E6E6" points="946.359,503.277 1033.523,513.078 1033.523,494.277 "/>
<polygon fill="none" stroke="#E6E6E6" points="946.359,540.744 1033.523,550.543 1033.523,531.744 "/>
<polygon fill="none" stroke="#E6E6E6" points="946.359,578.344 1033.523,588.144 1033.523,569.344 "/>
<polygon fill="none" stroke="#E6E6E6" points="946.359,615.943 1033.523,625.744 1033.523,606.943 "/>
<polygon fill="none" stroke="#E6E6E6" points="946.359,653.878 1033.523,663.678 1033.523,644.878 "/>
<polygon fill="none" stroke="#E6E6E6" points="946.359,691.479 1033.523,701.277 1033.523,682.479 "/>
<polygon fill="none" stroke="#E6E6E6" points="859.193,671.885 946.359,691.311 946.359,654.045 "/>
<polygon fill="none" stroke="#E6E6E6" points="859.193,596.422 946.359,616.127 946.359,578.326 "/>
<polygon fill="none" stroke="#E6E6E6" points="859.193,521.193 946.359,540.803 946.359,503.186 "/>
<polygon fill="none" stroke="#E6E6E6" points="772.361,482.28 859.525,521.486 859.525,446.275 "/>
<polygon fill="none" stroke="#E6E6E6" points="772.361,632.538 859.525,672.078 859.525,596.227 "/>
<polygon fill="none" stroke="#E6E6E6" points="685.453,554.081 772.617,632.256 772.617,482.287 "/>
<polygon fill="none" stroke="#E6E6E6" points="859.193,446.387 946.359,465.619 946.359,428.727 "/>
<g id="Layer_2" display="none">
	
		<image display="inline" overflow="visible" enable-background="new    " width="2454" height="1394" xlink:href="F7E97D52DF4C85C8.png"  transform="matrix(0.5 0 0 0.5 -11.4995 41)">
	</image>
</g>
<line fill="none" stroke="#E6E6E6" x1="514.406" y1="215.003" x2="600" y2="389.138"/>
<g opacity="0.6">
	<line fill="none" stroke="#E5B022" stroke-width="2" x1="1033.523" y1="80.249" x2="946.359" y2="89.249"/>
	<line fill="none" stroke="#E5B022" stroke-width="2" x1="1033.523" y1="117.6" x2="946.359" y2="126.6"/>
	<line fill="none" stroke="#E5B022" stroke-width="2" x1="1033.523" y1="155.2" x2="946.359" y2="164.2"/>
	<line fill="none" stroke="#E5B022" stroke-width="2" x1="1033.523" y1="192.666" x2="946.359" y2="201.666"/>
	<line fill="none" stroke="#E5B022" stroke-width="2" x1="1033.523" y1="230.266" x2="946.359" y2="239.266"/>
	<line fill="none" stroke="#E5B022" stroke-width="2" x1="1033.523" y1="267.866" x2="946.359" y2="276.866"/>
	<line fill="none" stroke="#E5B022" stroke-width="2" x1="946.359" y1="314.8" x2="1033.523" y2="324.6"/>
	<line fill="none" stroke="#E5B022" stroke-width="2" x1="1033.523" y1="343.4" x2="946.359" y2="352.4"/>
	<line fill="none" stroke="#E5B022" stroke-width="2" x1="859.193" y1="332.807" x2="946.359" y2="352.233"/>
	<line fill="none" stroke="#E5B022" stroke-width="2" x1="859.193" y1="257.345" x2="946.359" y2="277.049"/>
	<line fill="none" stroke="#E5B022" stroke-width="2" x1="859.193" y1="182.116" x2="946.359" y2="201.725"/>
	<line fill="none" stroke="#E5B022" stroke-width="2" x1="859.525" y1="107.197" x2="772.361" y2="143.203"/>
	<line fill="none" stroke="#E5B022" stroke-width="2" x1="772.361" y1="293.46" x2="859.525" y2="333"/>
	<line fill="none" stroke="#E5B022" stroke-width="2" x1="772.617" y1="143.21" x2="685.453" y2="215.003"/>
	<line fill="none" stroke="#E5B022" stroke-width="2" x1="946.359" y1="89.648" x2="859.193" y2="107.31"/>
</g>
<line fill="none" stroke="#E6E6E6" x1="514.406" y1="215.003" x2="600" y2="389.138"/>
<line fill="none" stroke="#E6E6E6" x1="640" y1="443.813" x2="685.594" y2="553.948"/>
<g opacity="0.6">
	<line fill="none" stroke="#EF4423" stroke-width="2" x1="1033.523" y1="419.415" x2="946.359" y2="428.415"/>
	<line fill="none" stroke="#EF4423" stroke-width="2" x1="1033.523" y1="456.678" x2="946.359" y2="465.678"/>
	<line fill="none" stroke="#EF4423" stroke-width="2" x1="946.359" y1="503.277" x2="1033.523" y2="513.078"/>
	<line fill="none" stroke="#EF4423" stroke-width="2" x1="1033.523" y1="531.744" x2="946.359" y2="540.744"/>
	<line fill="none" stroke="#EF4423" stroke-width="2" x1="1033.523" y1="569.344" x2="946.359" y2="578.344"/>
	<line fill="none" stroke="#EF4423" stroke-width="2" x1="1033.523" y1="606.943" x2="946.359" y2="615.943"/>
	<line fill="none" stroke="#EF4423" stroke-width="2" x1="1033.523" y1="644.878" x2="946.359" y2="653.878"/>
	<line fill="none" stroke="#EF4423" stroke-width="2" x1="1033.523" y1="682.479" x2="946.359" y2="691.479"/>
	<line fill="none" stroke="#EF4423" stroke-width="2" x1="946.359" y1="654.045" x2="859.193" y2="671.885"/>
	<line fill="none" stroke="#EF4423" stroke-width="2" x1="859.193" y1="596.422" x2="946.359" y2="616.127"/>
	<line fill="none" stroke="#EF4423" stroke-width="2" x1="859.193" y1="521.193" x2="946.359" y2="540.803"/>
	<line fill="none" stroke="#EF4423" stroke-width="2" x1="772.361" y1="482.28" x2="859.525" y2="521.486"/>
	<line fill="none" stroke="#EF4423" stroke-width="2" x1="859.525" y1="596.227" x2="772.361" y2="632.538"/>
	<line fill="none" stroke="#EF4423" stroke-width="2" x1="772.617" y1="482.287" x2="685.453" y2="554.081"/>
	<line fill="none" stroke="#EF4423" stroke-width="2" x1="946.359" y1="428.727" x2="859.193" y2="446.387"/>
	<line fill="none" stroke="#EF4423" stroke-width="2" x1="640" y1="443.813" x2="685.594" y2="553.948"/>
</g>
<line fill="none" stroke="#E6E6E6" x1="685.594" y1="215.003" x2="640" y2="325.138"/>
<line fill="none" stroke="#E6E6E6" x1="560" y1="443.813" x2="514.406" y2="553.948"/>
<line fill="none" stroke="#E6E6E6" x1="550" y1="399.5" x2="650" y2="399.5"/>
<g opacity="0.6">
	<line fill="none" stroke="#0A9078" stroke-width="2" x1="166.335" y1="117.6" x2="253.5" y2="126.6"/>
	<line fill="none" stroke="#0A9078" stroke-width="2" x1="166.335" y1="155.2" x2="253.5" y2="164.2"/>
	<line fill="none" stroke="#0A9078" stroke-width="2" x1="166.335" y1="192.666" x2="253.5" y2="201.666"/>
	<line fill="none" stroke="#0A9078" stroke-width="2" x1="166.335" y1="230.266" x2="253.5" y2="239.266"/>
	<line fill="none" stroke="#0A9078" stroke-width="2" x1="166.335" y1="267.866" x2="253.5" y2="276.866"/>
	<line fill="none" stroke="#0A9078" stroke-width="2" x1="253.5" y1="314.8" x2="166.335" y2="324.6"/>
	<line fill="none" stroke="#0A9078" stroke-width="2" x1="166.335" y1="343.4" x2="253.5" y2="352.4"/>
	<line fill="none" stroke="#0A9078" stroke-width="2" x1="340.665" y1="332.807" x2="253.5" y2="352.233"/>
	<line fill="none" stroke="#0A9078" stroke-width="2" x1="340.665" y1="257.345" x2="253.5" y2="277.049"/>
	<line fill="none" stroke="#0A9078" stroke-width="2" x1="253.5" y1="164.108" x2="340.665" y2="182.116"/>
	<line fill="none" stroke="#0A9078" stroke-width="2" x1="427.498" y1="293.46" x2="340.333" y2="333"/>
	<line fill="none" stroke="#0A9078" stroke-width="2" x1="514.406" y1="215.003" x2="427.241" y2="293.178"/>
	<line fill="none" stroke="#0A9078" stroke-width="2" x1="166.335" y1="80.249" x2="253.5" y2="89.249"/>
	<line fill="none" stroke="#0A9078" stroke-width="2" x1="340.333" y1="107.197" x2="427.498" y2="143.203"/>
	<line fill="none" stroke="#0A9078" stroke-width="2" x1="253.5" y1="89.648" x2="340.665" y2="107.31"/>
	<line fill="none" stroke="#0A9078" stroke-width="2" x1="514.406" y1="215.003" x2="600" y2="389.138"/>
</g>
</svg>
