<?xml version="1.0" encoding="utf-8"?>
<!-- Generator: Adobe Illustrator 16.2.0, SVG Export Plug-In . SVG Version: 6.00 Build 0)  -->
<!DOCTYPE svg PUBLIC "-//W3C//DTD SVG 1.1//EN" "http://www.w3.org/Graphics/SVG/1.1/DTD/svg11.dtd">
<svg version="1.1" id="Layer_1" xmlns="http://www.w3.org/2000/svg" xmlns:xlink="http://www.w3.org/1999/xlink" x="0px" y="0px"
	 width="1200px" height="780px" viewBox="0 0 1200 780" enable-background="new 0 0 1200 780" xml:space="preserve">
<g id="Layer_2" display="none">
	
		<image display="inline" overflow="visible" enable-background="new    " width="2454" height="1394" xlink:href="ABFE9BFFCD56B1DE.png"  transform="matrix(0.5 0 0 0.5 -11.5 41)">
	</image>
</g>
<polyline fill="none" stroke="#D1D3D4" points="14.002,98.8 166.335,98.8 166.335,80 14.002,80 "/>
<polyline fill="none" stroke="#D1D3D4" points="166.5,127.299 253.333,127.299 253.333,89 166.5,89 "/>
<polyline fill="none" stroke="#D1D3D4" points="340.408,296.552 427.241,296.552 427.241,144.953 340.408,144.953 "/>
<polyline fill="none" stroke="#D1D3D4" points="427.408,539.604 514.241,539.604 514.241,211.405 427.408,211.405 "/>
<polyline fill="none" stroke="#D1D3D4" points="773.49,211.405 686.657,211.405 686.657,539.604 773.49,539.604 "/>
<polyline fill="none" stroke="#D1D3D4" points="340.408,634.553 427.241,634.553 427.241,483.953 340.408,483.953 "/>
<polyline fill="none" stroke="#D1D3D4" points="859.682,144.953 772.85,144.953 772.85,296.552 859.682,296.552 "/>
<polyline fill="none" stroke="#D1D3D4" points="859.682,483.953 772.85,483.953 772.85,634.553 859.682,634.553 "/>
<g>
	<polyline fill="none" stroke="#D1D3D4" points="253.5,183.799 340.333,183.799 340.333,108 253.5,108 	"/>
	<polyline fill="none" stroke="#D1D3D4" points="253.5,334.299 340.333,334.299 340.333,258.5 253.5,258.5 	"/>
	<polyline fill="none" stroke="#D1D3D4" points="253.5,521.799 340.333,521.799 340.333,446 253.5,446 	"/>
	<polyline fill="none" stroke="#D1D3D4" points="253.5,672.299 340.333,672.299 340.333,596.5 253.5,596.5 	"/>
</g>
<g>
	<polyline fill="none" stroke="#D1D3D4" points="946.584,596.499 859.75,596.499 859.75,672.299 946.584,672.299 	"/>
	<polyline fill="none" stroke="#D1D3D4" points="946.584,445.999 859.75,445.999 859.75,521.799 946.584,521.799 	"/>
	<polyline fill="none" stroke="#D1D3D4" points="946.584,258.5 859.75,258.5 859.75,334.298 946.584,334.298 	"/>
	<polyline fill="none" stroke="#D1D3D4" points="946.584,108 859.75,108 859.75,183.798 946.584,183.798 	"/>
</g>
<polyline fill="none" stroke="#D1D3D4" points="166.5,202.633 253.333,202.633 253.333,164.333 166.5,164.333 "/>
<polyline fill="none" stroke="#D1D3D4" points="166.5,277.966 253.333,277.966 253.333,239.666 166.5,239.666 "/>
<polyline fill="none" stroke="#D1D3D4" points="166.5,353.299 253.333,353.299 253.333,315 166.5,315 "/>
<polyline fill="none" stroke="#D1D3D4" points="166.5,465.633 253.333,465.633 253.333,427.333 166.5,427.333 "/>
<polyline fill="none" stroke="#D1D3D4" points="166.5,540.965 253.333,540.965 253.333,502.666 166.5,502.666 "/>
<polyline fill="none" stroke="#D1D3D4" points="166.5,616.298 253.333,616.298 253.333,577.999 166.5,577.999 "/>
<polyline fill="none" stroke="#D1D3D4" points="166.5,691.633 253.333,691.633 253.333,653.332 166.5,653.332 "/>
<polyline fill="none" stroke="#D1D3D4" points="1033.298,653.332 946.465,653.332 946.465,691.633 1033.298,691.633 "/>
<polyline fill="none" stroke="#D1D3D4" points="1033.298,577.999 946.465,577.999 946.465,616.299 1033.298,616.299 "/>
<polyline fill="none" stroke="#D1D3D4" points="1033.298,502.666 946.465,502.666 946.465,540.966 1033.298,540.966 "/>
<polyline fill="none" stroke="#D1D3D4" points="1033.298,427.333 946.465,427.333 946.465,465.633 1033.298,465.633 "/>
<polyline fill="none" stroke="#D1D3D4" points="1033.298,315 946.465,315 946.465,353.299 1033.298,353.299 "/>
<polyline fill="none" stroke="#D1D3D4" points="1033.298,239.666 946.465,239.666 946.465,277.965 1033.298,277.965 "/>
<polyline fill="none" stroke="#D1D3D4" points="1033.298,164.333 946.465,164.333 946.465,202.632 1033.298,202.632 "/>
<polyline fill="none" stroke="#D1D3D4" points="1033.298,89 946.465,89 946.465,127.3 1033.298,127.3 "/>
<polyline fill="none" stroke="#D1D3D4" points="14,136.4 166.333,136.4 166.333,117.6 14,117.6 "/>
<polyline fill="none" stroke="#D1D3D4" points="14,174 166.333,174 166.333,155.2 14,155.2 "/>
<polyline fill="none" stroke="#D1D3D4" points="14,211.6 166.333,211.6 166.333,192.8 14,192.8 "/>
<polyline fill="none" stroke="#D1D3D4" points="14,249.2 166.333,249.2 166.333,230.4 14,230.4 "/>
<polyline fill="none" stroke="#D1D3D4" points="14,286.8 166.333,286.8 166.333,268 14,268 "/>
<polyline fill="none" stroke="#D1D3D4" points="14,324.4 166.333,324.4 166.333,305.601 14,305.601 "/>
<polyline fill="none" stroke="#D1D3D4" points="14,362 166.333,362 166.333,343.201 14,343.201 "/>
<polyline fill="none" stroke="#D1D3D4" points="14,436.801 166.333,436.801 166.333,418 14,418 "/>
<polyline fill="none" stroke="#D1D3D4" points="14,474.4 166.333,474.4 166.333,455.6 14,455.6 "/>
<polyline fill="none" stroke="#D1D3D4" points="14,512.001 166.333,512.001 166.333,493.2 14,493.2 "/>
<polyline fill="none" stroke="#D1D3D4" points="14,549.601 166.333,549.601 166.333,530.8 14,530.8 "/>
<polyline fill="none" stroke="#D1D3D4" points="14,587.201 166.333,587.201 166.333,568.4 14,568.4 "/>
<polyline fill="none" stroke="#D1D3D4" points="14,624.801 166.333,624.801 166.333,606 14,606 "/>
<polyline fill="none" stroke="#D1D3D4" points="14,662.401 166.333,662.401 166.333,643.601 14,643.601 "/>
<polyline fill="none" stroke="#D1D3D4" points="14,700 166.333,700 166.333,681.2 14,681.2 "/>
<polyline fill="none" stroke="#D1D3D4" points="1186,98.8 1033.667,98.8 1033.667,80 1186,80 "/>
<polyline fill="none" stroke="#D1D3D4" points="1186,136.4 1033.667,136.4 1033.667,117.6 1186,117.6 "/>
<polyline fill="none" stroke="#D1D3D4" points="1186,174 1033.667,174 1033.667,155.2 1186,155.2 "/>
<polyline fill="none" stroke="#D1D3D4" points="1186,211.6 1033.667,211.6 1033.667,192.8 1186,192.8 "/>
<polyline fill="none" stroke="#D1D3D4" points="1186,249.2 1033.667,249.2 1033.667,230.4 1186,230.4 "/>
<polyline fill="none" stroke="#D1D3D4" points="1186,286.8 1033.667,286.8 1033.667,268 1186,268 "/>
<polyline fill="none" stroke="#D1D3D4" points="1186,324.4 1033.667,324.4 1033.667,305.601 1186,305.601 "/>
<polyline fill="none" stroke="#D1D3D4" points="1186,362 1033.667,362 1033.667,343.201 1186,343.201 "/>
<polyline fill="none" stroke="#D1D3D4" points="1186,436.801 1033.667,436.801 1033.667,418 1186,418 "/>
<polyline fill="none" stroke="#D1D3D4" points="1186,474.4 1033.667,474.4 1033.667,455.6 1186,455.6 "/>
<polyline fill="none" stroke="#D1D3D4" points="1186,512.001 1033.667,512.001 1033.667,493.2 1186,493.2 "/>
<polyline fill="none" stroke="#D1D3D4" points="1186,549.601 1033.667,549.601 1033.667,530.8 1186,530.8 "/>
<polyline fill="none" stroke="#D1D3D4" points="1186,587.201 1033.667,587.201 1033.667,568.4 1186,568.4 "/>
<polyline fill="none" stroke="#D1D3D4" points="1186,624.801 1033.667,624.801 1033.667,606 1186,606 "/>
<polyline fill="none" stroke="#D1D3D4" points="1186,662.401 1033.667,662.401 1033.667,643.601 1186,643.601 "/>
<polyline fill="none" stroke="#D1D3D4" points="1186,700 1033.667,700 1033.667,681.2 1186,681.2 "/>
<line fill="none" stroke="#D1D3D4" x1="616.375" y1="334" x2="514.5" y2="334"/>
<line fill="none" stroke="#D1D3D4" x1="686.625" y1="446.5" x2="584.75" y2="446.5"/>
</svg>
