<?xml version="1.0" encoding="utf-8"?>
<!-- Generator: Adobe Illustrator 16.2.0, SVG Export Plug-In . SVG Version: 6.00 Build 0)  -->
<!DOCTYPE svg PUBLIC "-//W3C//DTD SVG 1.1//EN" "http://www.w3.org/Graphics/SVG/1.1/DTD/svg11.dtd">
<svg version="1.1" id="Layer_1" xmlns="http://www.w3.org/2000/svg" xmlns:xlink="http://www.w3.org/1999/xlink" x="0px" y="0px"
	 width="1200px" height="780px" viewBox="0 0 1200 780" enable-background="new 0 0 1200 780" xml:space="preserve">
<polygon fill="none" stroke="#F2F2F2" points="253.5,89 166.335,98.8 166.335,80 "/>
<polygon fill="none" stroke="#F2F2F2" points="253.5,126.6 166.335,136.4 166.335,117.6 "/>
<polygon fill="none" stroke="#F2F2F2" points="253.5,164.2 166.335,174 166.335,155.2 "/>
<polygon fill="none" stroke="#F2F2F2" points="253.5,201.666 166.335,211.466 166.335,192.666 "/>
<polygon fill="none" stroke="#F2F2F2" points="253.5,239.266 166.335,249.066 166.335,230.266 "/>
<polygon fill="none" stroke="#F2F2F2" points="253.5,276.866 166.335,286.666 166.335,267.866 "/>
<polygon fill="none" stroke="#F2F2F2" points="253.5,314.8 166.335,324.6 166.335,305.8 "/>
<polygon fill="none" stroke="#F2F2F2" points="253.5,352.4 166.335,362.2 166.335,343.4 "/>
<polygon fill="none" stroke="#F2F2F2" points="340.665,333.224 253.5,352.233 253.5,315.767 "/>
<polygon fill="none" stroke="#F2F2F2" points="340.665,258.04 253.5,277.049 253.5,240.583 "/>
<polygon fill="none" stroke="#F2F2F2" points="340.665,182.716 253.5,201.725 253.5,165.258 "/>
<polygon fill="none" stroke="#F2F2F2" points="427.498,144.264 340.333,184.325 340.333,107.474 "/>
<polygon fill="none" stroke="#F2F2F2" points="427.498,293.939 340.333,334 340.333,257.148 "/>
<polygon fill="none" stroke="#F2F2F2" points="514.406,218.084 427.241,296.678 427.241,145.907 "/>
<polygon fill="none" stroke="#F2F2F2" points="340.665,107.532 253.5,126.541 253.5,90.074 "/>
<g id="Layer_2" display="none">
	
		<image display="inline" overflow="visible" enable-background="new    " width="2454" height="1394" xlink:href="F7E97D52DF4C85C8.png"  transform="matrix(0.5 0 0 0.5 -11.4995 41)">
	</image>
</g>
<g>
	<line fill="none" stroke="#1EB39C" stroke-width="1.5" x1="166.335" y1="80" x2="253.5" y2="89"/>
	<line fill="none" stroke="#1EB39C" stroke-width="1.5" x1="253.5" y1="126.6" x2="166.335" y2="136.4"/>
	<line fill="none" stroke="#1EB39C" stroke-width="1.5" x1="253.5" y1="164.2" x2="166.335" y2="174"/>
	<line fill="none" stroke="#1EB39C" stroke-width="1.5" x1="166.335" y1="192.666" x2="253.5" y2="201.666"/>
	<line fill="none" stroke="#1EB39C" stroke-width="1.5" x1="166.335" y1="230.266" x2="253.5" y2="239.266"/>
	<line fill="none" stroke="#1EB39C" stroke-width="1.5" x1="166.335" y1="267.866" x2="253.5" y2="276.866"/>
	<line fill="none" stroke="#1EB39C" stroke-width="1.5" x1="253.5" y1="314.8" x2="166.335" y2="324.6"/>
	<line fill="none" stroke="#1EB39C" stroke-width="1.5" x1="253.5" y1="352.4" x2="166.335" y2="362.2"/>
	<path fill="none" stroke="#1EB39C" stroke-width="1.5" d="M253.5,315.767"/>
	<line fill="none" stroke="#1EB39C" stroke-width="1.5" x1="340.665" y1="333.224" x2="253.5" y2="352.233"/>
	<path fill="none" stroke="#1EB39C" stroke-width="1.5" d="M253.5,240.583"/>
	<line fill="none" stroke="#1EB39C" stroke-width="1.5" x1="340.665" y1="258.04" x2="253.5" y2="277.049"/>
	<line fill="none" stroke="#1EB39C" stroke-width="1.5" x1="253.5" y1="165.258" x2="340.665" y2="182.716"/>
	<path fill="none" stroke="#1EB39C" stroke-width="1.5" d="M253.5,201.725"/>
	<line fill="none" stroke="#1EB39C" stroke-width="1.5" x1="340.333" y1="107.474" x2="427.498" y2="144.264"/>
	<path fill="none" stroke="#1EB39C" stroke-width="1.5" d="M340.333,184.325"/>
	<path fill="none" stroke="#1EB39C" stroke-width="1.5" d="M340.333,257.148"/>
	<line fill="none" stroke="#1EB39C" stroke-width="1.5" x1="427.498" y1="293.939" x2="340.333" y2="334"/>
	<path fill="none" stroke="#1EB39C" stroke-width="1.5" d="M427.241,145.907"/>
	<line fill="none" stroke="#1EB39C" stroke-width="1.5" x1="514.406" y1="218.084" x2="427.241" y2="296.678"/>
	<line fill="none" stroke="#1EB39C" stroke-width="1.5" x1="253.5" y1="90.074" x2="340.665" y2="107.532"/>
	<path fill="none" stroke="#1EB39C" stroke-width="1.5" d="M253.5,126.541"/>
</g>
<g>
	<line fill="none" stroke="#F2F2F2" x1="166.335" y1="98.8" x2="166.335" y2="80"/>
	<path fill="none" stroke="#F2F2F2" d="M166.5,89"/>
	<line fill="none" stroke="#F2F2F2" x1="253.333" y1="127.299" x2="253.333" y2="89"/>
	<path fill="none" stroke="#F2F2F2" d="M166.5,127.299"/>
	<path fill="none" stroke="#F2F2F2" d="M340.408,144.953"/>
	<line fill="none" stroke="#F2F2F2" x1="427.241" y1="296.552" x2="427.241" y2="144.953"/>
	<path fill="none" stroke="#F2F2F2" d="M340.408,296.552"/>
	<path fill="none" stroke="#F2F2F2" d="M427.408,211.405"/>
	<line fill="none" stroke="#F2F2F2" x1="514.241" y1="539.604" x2="514.241" y2="211.405"/>
	<path fill="none" stroke="#F2F2F2" d="M427.408,539.604"/>
	<path fill="none" stroke="#F2F2F2" d="M773.49,539.604"/>
	<line fill="none" stroke="#F2F2F2" x1="686.657" y1="211.405" x2="686.657" y2="539.604"/>
	<path fill="none" stroke="#F2F2F2" d="M773.49,211.405"/>
	<path fill="none" stroke="#F2F2F2" d="M340.408,483.953"/>
	<line fill="none" stroke="#F2F2F2" x1="427.241" y1="634.553" x2="427.241" y2="483.953"/>
	<path fill="none" stroke="#F2F2F2" d="M340.408,634.553"/>
	<path fill="none" stroke="#F2F2F2" d="M859.682,296.552"/>
	<line fill="none" stroke="#F2F2F2" x1="772.85" y1="144.953" x2="772.85" y2="296.552"/>
	<path fill="none" stroke="#F2F2F2" d="M859.682,144.953"/>
	<path fill="none" stroke="#F2F2F2" d="M859.682,634.553"/>
	<line fill="none" stroke="#F2F2F2" x1="772.85" y1="483.953" x2="772.85" y2="634.553"/>
	<path fill="none" stroke="#F2F2F2" d="M859.682,483.953"/>
	<g>
		<path fill="none" stroke="#F2F2F2" d="M253.5,108"/>
		<line fill="none" stroke="#F2F2F2" x1="340.333" y1="183.799" x2="340.333" y2="108"/>
		<path fill="none" stroke="#F2F2F2" d="M253.5,183.799"/>
		<path fill="none" stroke="#F2F2F2" d="M253.5,258.5"/>
		<line fill="none" stroke="#F2F2F2" x1="340.333" y1="334.299" x2="340.333" y2="258.5"/>
		<path fill="none" stroke="#F2F2F2" d="M253.5,334.299"/>
		<path fill="none" stroke="#F2F2F2" d="M253.5,446"/>
		<line fill="none" stroke="#F2F2F2" x1="340.333" y1="521.799" x2="340.333" y2="446"/>
		<path fill="none" stroke="#F2F2F2" d="M253.5,521.799"/>
		<path fill="none" stroke="#F2F2F2" d="M253.5,596.5"/>
		<line fill="none" stroke="#F2F2F2" x1="340.333" y1="672.299" x2="340.333" y2="596.5"/>
		<path fill="none" stroke="#F2F2F2" d="M253.5,672.299"/>
	</g>
	<g>
		<path fill="none" stroke="#F2F2F2" d="M946.584,672.299"/>
		<line fill="none" stroke="#F2F2F2" x1="859.75" y1="596.499" x2="859.75" y2="672.299"/>
		<path fill="none" stroke="#F2F2F2" d="M946.584,596.499"/>
		<path fill="none" stroke="#F2F2F2" d="M946.584,521.799"/>
		<line fill="none" stroke="#F2F2F2" x1="859.75" y1="445.999" x2="859.75" y2="521.799"/>
		<path fill="none" stroke="#F2F2F2" d="M946.584,445.999"/>
		<path fill="none" stroke="#F2F2F2" d="M946.584,334.298"/>
		<line fill="none" stroke="#F2F2F2" x1="859.75" y1="258.5" x2="859.75" y2="334.298"/>
		<path fill="none" stroke="#F2F2F2" d="M946.584,258.5"/>
		<path fill="none" stroke="#F2F2F2" d="M946.584,183.798"/>
		<line fill="none" stroke="#F2F2F2" x1="859.75" y1="108" x2="859.75" y2="183.798"/>
		<path fill="none" stroke="#F2F2F2" d="M946.584,108"/>
	</g>
	<path fill="none" stroke="#F2F2F2" d="M166.5,164.333"/>
	<line fill="none" stroke="#F2F2F2" x1="253.333" y1="202.633" x2="253.333" y2="164.333"/>
	<path fill="none" stroke="#F2F2F2" d="M166.5,202.633"/>
	<path fill="none" stroke="#F2F2F2" d="M166.5,239.666"/>
	<line fill="none" stroke="#F2F2F2" x1="253.333" y1="277.966" x2="253.333" y2="239.666"/>
	<path fill="none" stroke="#F2F2F2" d="M166.5,277.966"/>
	<path fill="none" stroke="#F2F2F2" d="M166.5,315"/>
	<line fill="none" stroke="#F2F2F2" x1="253.333" y1="353.299" x2="253.333" y2="315"/>
	<path fill="none" stroke="#F2F2F2" d="M166.5,353.299"/>
	<path fill="none" stroke="#F2F2F2" d="M166.5,427.333"/>
	<line fill="none" stroke="#F2F2F2" x1="253.333" y1="465.633" x2="253.333" y2="427.333"/>
	<path fill="none" stroke="#F2F2F2" d="M166.5,465.633"/>
	<path fill="none" stroke="#F2F2F2" d="M166.5,502.666"/>
	<line fill="none" stroke="#F2F2F2" x1="253.333" y1="540.965" x2="253.333" y2="502.666"/>
	<path fill="none" stroke="#F2F2F2" d="M166.5,540.965"/>
	<path fill="none" stroke="#F2F2F2" d="M166.5,577.999"/>
	<line fill="none" stroke="#F2F2F2" x1="253.333" y1="616.298" x2="253.333" y2="577.999"/>
	<path fill="none" stroke="#F2F2F2" d="M166.5,616.298"/>
	<path fill="none" stroke="#F2F2F2" d="M166.5,653.332"/>
	<line fill="none" stroke="#F2F2F2" x1="253.333" y1="691.633" x2="253.333" y2="653.332"/>
	<path fill="none" stroke="#F2F2F2" d="M166.5,691.633"/>
	<path fill="none" stroke="#F2F2F2" d="M1033.298,691.633"/>
	<line fill="none" stroke="#F2F2F2" x1="946.465" y1="653.332" x2="946.465" y2="691.633"/>
	<path fill="none" stroke="#F2F2F2" d="M1033.298,653.332"/>
	<path fill="none" stroke="#F2F2F2" d="M1033.298,616.299"/>
	<line fill="none" stroke="#F2F2F2" x1="946.465" y1="577.999" x2="946.465" y2="616.299"/>
	<path fill="none" stroke="#F2F2F2" d="M1033.298,577.999"/>
	<path fill="none" stroke="#F2F2F2" d="M1033.298,540.966"/>
	<line fill="none" stroke="#F2F2F2" x1="946.465" y1="502.666" x2="946.465" y2="540.966"/>
	<path fill="none" stroke="#F2F2F2" d="M1033.298,502.666"/>
	<path fill="none" stroke="#F2F2F2" d="M1033.298,465.633"/>
	<line fill="none" stroke="#F2F2F2" x1="946.465" y1="427.333" x2="946.465" y2="465.633"/>
	<path fill="none" stroke="#F2F2F2" d="M1033.298,427.333"/>
	<path fill="none" stroke="#F2F2F2" d="M1033.298,353.299"/>
	<line fill="none" stroke="#F2F2F2" x1="946.465" y1="315" x2="946.465" y2="353.299"/>
	<path fill="none" stroke="#F2F2F2" d="M1033.298,315"/>
	<path fill="none" stroke="#F2F2F2" d="M1033.298,277.965"/>
	<line fill="none" stroke="#F2F2F2" x1="946.465" y1="239.666" x2="946.465" y2="277.965"/>
	<path fill="none" stroke="#F2F2F2" d="M1033.298,239.666"/>
	<path fill="none" stroke="#F2F2F2" d="M1033.298,202.632"/>
	<line fill="none" stroke="#F2F2F2" x1="946.465" y1="164.333" x2="946.465" y2="202.632"/>
	<path fill="none" stroke="#F2F2F2" d="M1033.298,164.333"/>
	<path fill="none" stroke="#F2F2F2" d="M1033.298,127.3"/>
	<line fill="none" stroke="#F2F2F2" x1="946.465" y1="89" x2="946.465" y2="127.3"/>
	<path fill="none" stroke="#F2F2F2" d="M1033.298,89"/>
	<line fill="none" stroke="#F2F2F2" x1="166.333" y1="136.4" x2="166.333" y2="117.6"/>
	<line fill="none" stroke="#F2F2F2" x1="166.333" y1="174" x2="166.333" y2="155.2"/>
	<line fill="none" stroke="#F2F2F2" x1="166.333" y1="211.6" x2="166.333" y2="192.8"/>
	<line fill="none" stroke="#F2F2F2" x1="166.333" y1="249.2" x2="166.333" y2="230.4"/>
	<line fill="none" stroke="#F2F2F2" x1="166.333" y1="286.8" x2="166.333" y2="268"/>
	<line fill="none" stroke="#F2F2F2" x1="166.333" y1="324.4" x2="166.333" y2="305.601"/>
	<line fill="none" stroke="#F2F2F2" x1="166.333" y1="362" x2="166.333" y2="343.201"/>
	<line fill="none" stroke="#F2F2F2" x1="166.333" y1="436.801" x2="166.333" y2="418"/>
	<line fill="none" stroke="#F2F2F2" x1="166.333" y1="474.4" x2="166.333" y2="455.6"/>
	<line fill="none" stroke="#F2F2F2" x1="166.333" y1="512.001" x2="166.333" y2="493.2"/>
	<line fill="none" stroke="#F2F2F2" x1="166.333" y1="549.601" x2="166.333" y2="530.8"/>
	<line fill="none" stroke="#F2F2F2" x1="166.333" y1="587.201" x2="166.333" y2="568.4"/>
	<line fill="none" stroke="#F2F2F2" x1="166.333" y1="624.801" x2="166.333" y2="606"/>
	<line fill="none" stroke="#F2F2F2" x1="166.333" y1="662.401" x2="166.333" y2="643.601"/>
	<line fill="none" stroke="#F2F2F2" x1="166.333" y1="700" x2="166.333" y2="681.2"/>
	<line fill="none" stroke="#F2F2F2" x1="1033.667" y1="98.8" x2="1033.667" y2="80"/>
	<line fill="none" stroke="#F2F2F2" x1="1033.667" y1="136.4" x2="1033.667" y2="117.6"/>
	<line fill="none" stroke="#F2F2F2" x1="1033.667" y1="174" x2="1033.667" y2="155.2"/>
	<line fill="none" stroke="#F2F2F2" x1="1033.667" y1="211.6" x2="1033.667" y2="192.8"/>
	<line fill="none" stroke="#F2F2F2" x1="1033.667" y1="249.2" x2="1033.667" y2="230.4"/>
	<line fill="none" stroke="#F2F2F2" x1="1033.667" y1="286.8" x2="1033.667" y2="268"/>
	<line fill="none" stroke="#F2F2F2" x1="1033.667" y1="324.4" x2="1033.667" y2="305.601"/>
	<line fill="none" stroke="#F2F2F2" x1="1033.667" y1="362" x2="1033.667" y2="343.201"/>
	<line fill="none" stroke="#F2F2F2" x1="1033.667" y1="436.801" x2="1033.667" y2="418"/>
	<line fill="none" stroke="#F2F2F2" x1="1033.667" y1="474.4" x2="1033.667" y2="455.6"/>
	<line fill="none" stroke="#F2F2F2" x1="1033.667" y1="512.001" x2="1033.667" y2="493.2"/>
	<line fill="none" stroke="#F2F2F2" x1="1033.667" y1="549.601" x2="1033.667" y2="530.8"/>
	<line fill="none" stroke="#F2F2F2" x1="1033.667" y1="587.201" x2="1033.667" y2="568.4"/>
	<line fill="none" stroke="#F2F2F2" x1="1033.667" y1="624.801" x2="1033.667" y2="606"/>
	<line fill="none" stroke="#F2F2F2" x1="1033.667" y1="662.401" x2="1033.667" y2="643.601"/>
	<line fill="none" stroke="#F2F2F2" x1="1033.667" y1="700" x2="1033.667" y2="681.2"/>
	<path fill="none" stroke="#F2F2F2" d="M514.5,334"/>
	<path fill="none" stroke="#F2F2F2" d="M686.625,446.5"/>
</g>
</svg>
